<svg id="instagram-logo" data-name="instagram-logo" xmlns="http://www.w3.org/2000/svg" viewBox="0 0 24 24">
  <path d="M16,7.13a.88.88,0,1,0,.88.88A.88.88,0,0,0,16,7.13Z" style="fill:#3b3b3b"/>
  <path d="M12.06,8.26A3.7,3.7,0,1,0,15.76,12,3.69,3.69,0,0,0,12.06,8.26Zm0,6.06A2.37,2.37,0,1,1,14.43,12,2.37,2.37,0,0,1,12.06,14.32Z" style="fill:#3b3b3b"/>
  <path d="M15,19.45H9A4.51,4.51,0,0,1,4.5,15V9A4.51,4.51,0,0,1,9,4.45h6A4.51,4.51,0,0,1,19.5,9v6A4.51,4.51,0,0,1,15,19.45ZM9,5.86A3.1,3.1,0,0,0,5.91,9v6A3.1,3.1,0,0,0,9,18h6A3.1,3.1,0,0,0,18.09,15V9A3.1,3.1,0,0,0,15,5.86Z" style="fill:#3b3b3b"/>
</svg>
